<?xml version="1.0" encoding="UTF-8" standalone="no"?>
<!-- Created with Inkscape (http://www.inkscape.org/) -->

<svg
   width="46.721886mm"
   height="15.804453mm"
   viewBox="0 0 176.58665 59.733366"
   version="1.1"
   id="svg1"
   xmlns="http://www.w3.org/2000/svg"
   xmlns:svg="http://www.w3.org/2000/svg">
  <defs
     id="defs1">
    <linearGradient
       id="swatch29">
      <stop
         style="stop-color:#000000;stop-opacity:1;"
         offset="0"
         id="stop29" />
    </linearGradient>
  </defs>
  <path
     style="font-weight:bold;font-size:74.6667px;line-height:0;font-family:Comfortaa;-inkscape-font-specification:'Comfortaa Bold';letter-spacing:0px;stroke-width:1.99937;paint-order:stroke fill markers"
     d="m 154.55996,59.28537 q -5.45067,0 -9.78134,-2.688 -4.33067,-2.76267 -6.86934,-7.39201 -2.464,-4.704 -2.464,-10.60267 0,-5.89867 2.688,-10.60267 2.76267,-4.704 7.39201,-7.392 4.704,-2.76267 10.528,-2.76267 5.824,0 10.45334,2.76267 4.62934,2.688 7.31734,7.392 2.76266,4.704 2.76266,10.60267 h -2.912 q 0,5.89867 -2.53866,10.60267 -2.46401,4.62934 -6.79467,7.39201 -4.33067,2.688 -9.78134,2.688 z m 1.49333,-6.72001 q 3.808,0 6.79467,-1.792 2.98667,-1.86666 4.704,-5.00267 1.71734,-3.21066 1.71734,-7.168 0,-4.032 -1.71734,-7.168 -1.71733,-3.21067 -4.704,-5.00267 -2.98667,-1.86667 -6.79467,-1.86667 -3.73333,0 -6.79467,1.86667 -2.98667,1.792 -4.77867,5.00267 -1.71733,3.136 -1.71733,7.168 0,3.95734 1.71733,7.168 1.792,3.13601 4.77867,5.00267 3.06134,1.792 6.79467,1.792 z m 16.72534,6.49601 q -1.64266,0 -2.76267,-1.04534 -1.04533,-1.12 -1.04533,-2.76266 V 43.82936 l 1.41867,-7.91467 6.19733,2.688 v 16.65068 q 0,1.64266 -1.12,2.76266 -1.04533,1.04534 -2.688,1.04534 z"
     id="path29" />
  <path
     style="font-weight:bold;font-size:74.6667px;line-height:0;font-family:Comfortaa;-inkscape-font-specification:'Comfortaa Bold';letter-spacing:0px;fill:#82045b;fill-opacity:1;stroke-width:1.99937;paint-order:stroke fill markers"
     d="m 107.89329,33.45069 q 0,-4.48 2.16533,-7.98934 2.24,-3.584 5.97334,-5.67467 3.73333,-2.09067 8.21333,-2.09067 4.48001,0 6.64534,1.49334 2.24,1.41867 1.71733,3.43467 -0.224,1.04533 -0.896,1.64266 -0.59733,0.52267 -1.41866,0.672 -0.82134,0.14934 -1.792,-0.0747 -4.77867,-0.97067 -8.58668,-0.14934 -3.808,0.82134 -6.048,3.06134 -2.16533,2.24 -2.16533,5.67467 z m 0.0747,25.53601 q -1.792,0 -2.76267,-0.896 -0.97066,-0.97067 -0.97066,-2.83733 V 21.87735 q 0,-1.792 0.97066,-2.76267 0.97067,-0.97067 2.76267,-0.97067 1.86667,0 2.76267,0.97067 0.97067,0.896 0.97067,2.76267 v 33.37602 q 0,1.792 -0.97067,2.76266 -0.896,0.97067 -2.76267,0.97067 z"
     id="path28" />
  <path
     style="font-weight:bold;font-size:74.6667px;line-height:0;font-family:Comfortaa;-inkscape-font-specification:'Comfortaa Bold';letter-spacing:0px;stroke-width:1.99937;paint-order:stroke fill markers"
     d="m 72.351995,59.28537 q -6.048,0 -10.67734,-2.61334 -4.62933,-2.688 -7.31733,-7.31733 -2.61334,-4.70401 -2.61334,-10.75201 0,-6.12267 2.61334,-10.752 2.688,-4.70401 7.31733,-7.31734 4.62934,-2.688 10.67734,-2.688 5.97334,0 10.60267,2.688 4.62934,2.61333 7.24267,7.31734 2.68801,4.62933 2.68801,10.752 0,6.048 -2.61334,10.75201 -2.61333,4.62933 -7.24267,7.31733 -4.62934,2.61334 -10.67734,2.61334 z m 0,-6.72001 q 3.88267,0 6.86934,-1.792 2.98667,-1.792 4.62933,-4.928 1.71734,-3.136 1.71734,-7.24267 0,-4.10667 -1.71734,-7.24267 -1.64266,-3.21067 -4.62933,-5.00267 -2.98667,-1.792 -6.86934,-1.792 -3.88267,0 -6.86933,1.792 -2.98667,1.792 -4.70401,5.00267 -1.71733,3.136 -1.71733,7.24267 0,4.10667 1.71733,7.24267 1.71734,3.136 4.70401,4.928 2.98666,1.792 6.86933,1.792 z"
     id="path27" />
  <path
     style="font-weight:bold;font-size:74.6667px;line-height:0;font-family:Comfortaa;-inkscape-font-specification:'Comfortaa Bold';letter-spacing:0px;stroke-width:1.99937;paint-order:stroke fill markers"
     d="m 21.727995,59.73337 q -4.77867,0 -9.10934,-1.49334 -4.3306698,-1.49333 -7.5413398,-4.18133 -3.21066,-2.688 -4.704,-6.19734 -0.74667,-1.568 0,-2.912 0.82134,-1.344 2.688,-1.71733 1.344,-0.29867 2.61334,0.448 1.344,0.672 2.016,2.09066 0.896,1.86667 2.9119998,3.43467 2.09067,1.568 5.00267,2.53867 2.912,0.97067 6.12267,0.97067 3.584,0 6.57067,-1.12 3.06133,-1.12 4.928,-3.21067 1.86667,-2.16534 1.86667,-5.30134 0,-3.95733 -3.136,-7.09333 -3.06134,-3.13601 -10.15467,-3.88267 -9.25868,-0.896 -14.5600098,-5.45067 -5.30134,-4.55467 -5.30134,-11.27467 0,-4.92801 2.76267,-8.3626702 2.76267,-3.43467 7.4666698,-5.22667 Q 16.949325,9.7857323e-6 22.773325,9.7857323e-6 q 4.55467,0 7.91467,1.2693300142677 3.43467,1.26933 5.97334,3.50933 2.53867,2.24001 4.40533,5.3013402 1.04534,1.64267 0.82134,3.136 -0.14934,1.41867 -1.41867,2.24 -1.41867,0.896 -3.06133,0.37334 -1.64267,-0.52267 -2.46401,-1.94134 -1.19466,-2.16533 -2.912,-3.65867 -1.71733,-1.4933302 -4.032,-2.3146602 -2.31467,-0.896 -5.45067,-0.896 -5.52533,-0.0747 -9.25867,2.09066 -3.7333298,2.0906702 -3.7333298,6.4960102 0,2.24 1.1199998,4.33067 1.19466,2.016 4.256,3.50933 3.136,1.49333 8.96,2.09067 8.88534,0.896 13.81334,5.45067 5.00267,4.48 5.00267,11.872 0,4.25601 -1.792,7.39201 -1.71733,3.136 -4.704,5.30133 -2.912,2.09067 -6.72,3.136 -3.73334,1.04534 -7.76534,1.04534 z"
     id="text1" />
</svg>
